<?xml version="1.0" encoding="UTF-8"?>
<svg width="36px" height="32px" viewBox="0 0 36 32" version="1.1" xmlns="http://www.w3.org/2000/svg" xmlns:xlink="http://www.w3.org/1999/xlink">
    <!-- Generator: Sketch 46.2 (44496) - http://www.bohemiancoding.com/sketch -->
    <title>Download</title>
    <desc>Created with Sketch.</desc>
    <defs></defs>
    <g id="Page-1" stroke="none" stroke-width="1" fill="none" fill-rule="evenodd">
        <g id="Icons-Pattern-One" transform="translate(-256.000000, -467.000000)" fill-rule="nonzero" fill="#FF39AA">
            <g id="Download" transform="translate(256.000000, 465.000000)">
                <path d="M16.3435789,17.9322831 L16.3435789,3.97160243 C16.3435789,2.88271648 17.2262954,2 18.3151814,2 C19.4040673,2 20.2867838,2.88271648 20.2867838,3.97160243 L20.2867838,17.5746634 L22.3187719,15.5426754 C23.0887305,14.7727167 24.3370801,14.7727167 25.1070388,15.5426754 C25.8769974,16.312634 25.8769974,17.5609836 25.1070388,18.3309423 L19.530505,23.9074761 C19.1455257,24.2924554 18.6409486,24.4849451 18.1363715,24.4849451 C17.6317945,24.4849451 17.1272174,24.2924554 16.7422381,23.9074761 L11.1657043,18.3309423 C10.3957456,17.5609836 10.3957456,16.312634 11.1657043,15.5426754 C11.9356629,14.7727167 13.1840125,14.7727167 13.9539712,15.5426754 L16.3435789,17.9322831 Z M0,26.2112085 C0,25.2578195 0.833676673,24.4849451 1.86206897,24.4849451 C2.89046126,24.4849451 3.72413793,25.2578195 3.72413793,26.2112085 L3.72413793,28.5128932 C3.72413793,29.4662821 4.5578146,30.2391566 5.5862069,30.2391566 L30.4137931,30.2391566 C31.4421854,30.2391566 32.2758621,29.4662821 32.2758621,28.5128932 L32.2758621,26.2112085 C32.2758621,25.2578195 33.1095387,24.4849451 34.137931,24.4849451 C35.1663233,24.4849451 36,25.2578195 36,26.2112085 L36,28.5128932 C36,31.3730601 33.49897,33.6916836 30.4137931,33.6916836 L5.5862069,33.6916836 C2.50103002,33.6916836 0,31.3730601 0,28.5128932 L0,26.2112085 Z"></path>
            </g>
        </g>
    </g>
</svg>