<?xml version="1.0" encoding="UTF-8"?>
<svg width="36px" height="36px" viewBox="0 0 36 36" version="1.1" xmlns="http://www.w3.org/2000/svg" xmlns:xlink="http://www.w3.org/1999/xlink">
    <!-- Generator: Sketch 46.2 (44496) - http://www.bohemiancoding.com/sketch -->
    <title>Search</title>
    <desc>Created with Sketch.</desc>
    <defs></defs>
    <g id="Page-1" stroke="none" stroke-width="1" fill="none" fill-rule="evenodd">
        <g id="Icons-Pattern-One" transform="translate(-407.000000, -93.000000)" fill-rule="nonzero" fill="#FF39AA">
            <g id="Search" transform="translate(407.000000, 93.000000)">
                <path d="M35.4015774,32.5044817 C36.1994742,33.3041299 36.1994742,34.6006157 35.4015774,35.4002639 C34.6036805,36.199912 33.3100342,36.199912 32.5121373,35.4002639 L23.0689831,25.9363825 C20.6476475,27.8420653 17.6056314,28.9767782 14.3019985,28.9767782 C6.40322283,28.9767782 0,22.4901055 0,14.4883891 C0,6.48667276 6.40322283,0 14.3019985,0 C22.2007741,0 28.603997,6.48667276 28.603997,14.4883891 C28.603997,17.6584811 27.5989739,20.5907782 25.8940974,22.9761335 L35.4015774,32.5044817 Z M14.3019985,24.8372385 C19.9439811,24.8372385 24.5177117,20.2039008 24.5177117,14.4883891 C24.5177117,8.77287743 19.9439811,4.13953975 14.3019985,4.13953975 C8.66001588,4.13953975 4.08628528,8.77287743 4.08628528,14.4883891 C4.08628528,20.2039008 8.66001588,24.8372385 14.3019985,24.8372385 Z"></path>
            </g>
        </g>
    </g>
</svg>