<?xml version="1.0" encoding="UTF-8" standalone="no"?>
<!-- Created with Inkscape (http://www.inkscape.org/) -->

<svg
   width="135.30563mm"
   height="135.26915mm"
   viewBox="0 0 135.30563 135.26915"
   version="1.1"
   id="svg5"
   inkscape:version="1.1.2 (0a00cf5339, 2022-02-04)"
   sodipodi:docname="settings.svg"
   xmlns:inkscape="http://www.inkscape.org/namespaces/inkscape"
   xmlns:sodipodi="http://sodipodi.sourceforge.net/DTD/sodipodi-0.dtd"
   xmlns="http://www.w3.org/2000/svg"
   xmlns:svg="http://www.w3.org/2000/svg">
  <sodipodi:namedview
     id="namedview7"
     pagecolor="#ffffff"
     bordercolor="#666666"
     borderopacity="1.0"
     inkscape:pageshadow="2"
     inkscape:pageopacity="0.0"
     inkscape:pagecheckerboard="0"
     inkscape:document-units="mm"
     showgrid="false"
     units="mm"
     width="100mm"
     fit-margin-top="0"
     fit-margin-left="0"
     fit-margin-right="0"
     fit-margin-bottom="0"
     inkscape:zoom="0.77771465"
     inkscape:cx="137.5826"
     inkscape:cy="558.68821"
     inkscape:window-width="2522"
     inkscape:window-height="1376"
     inkscape:window-x="0"
     inkscape:window-y="27"
     inkscape:window-maximized="1"
     inkscape:current-layer="layer1" />
  <defs
     id="defs2" />
  <g
     inkscape:label="Layer 1"
     inkscape:groupmode="layer"
     id="layer1"
     transform="translate(-0.33136072,-0.7182713)">
    <path
       style="fill:#ff39aa;stroke-width:0.264583;fill-opacity:1"
       d="m 59.65511,135.67922 c -2.228482,-0.71184 -4.018819,-2.2446 -5.102153,-4.36811 -0.308046,-0.60382 -0.851297,-3.01183 -1.326451,-5.87962 -0.442609,-2.67134 -0.858449,-5.09511 -0.924097,-5.38615 -0.08527,-0.37804 -0.632548,-0.70852 -1.916317,-1.15719 -0.988329,-0.34542 -3.006084,-1.1637 -4.483898,-1.81839 l -2.686939,-1.19036 -4.12745,2.95835 c -5.153691,3.69391 -6.017857,4.10589 -8.622633,4.1108 -3.352336,0.006 -4.262401,-0.57838 -10.204624,-6.55627 -5.728299,-5.76267 -6.259145,-6.55828 -6.420177,-9.62224 -0.145736,-2.77292 0.328635,-3.85886 3.793906,-8.685109 1.671753,-2.32834 3.039948,-4.31604 3.040432,-4.41712 4.76e-4,-0.10107 -0.426973,-1.1131 -0.949906,-2.24895 -0.522933,-1.13585 -1.362313,-3.13276 -1.86529,-4.43759 -0.502977,-1.30482 -0.950291,-2.4082 -0.994032,-2.45194 -0.04374,-0.0437 -2.44235,-0.49163 -5.330243,-0.99531 -5.8795507,-1.02547 -7.4022187,-1.5929 -8.9897477,-3.35011 -2.02733404,-2.24401 -2.10054904,-2.61201 -2.19186004,-11.01704 -0.09424,-8.67462 0.03611,-9.48584 1.88964104,-11.75961 1.731956,-2.12463 3.104094,-2.68704 8.9073187,-3.65086 2.692135,-0.44713 5.064931,-0.90314 5.27288,-1.01336 0.207948,-0.11023 0.643922,-0.98848 0.96883,-1.95166 0.324909,-0.96319 1.14462,-2.99212 1.821581,-4.50874 l 1.230839,-2.75748 -3.033799,-4.26151 c -3.547596,-4.98323 -4.018718,-6.01923 -3.992595,-8.77976 0.02972,-3.14096 0.598301,-4.00416 6.556538,-9.95399 2.920125,-2.916 5.531859,-5.29453 6.165224,-5.61471 2.211762,-1.11811 5.565739,-1.16852 7.622224,-0.11456 0.442145,0.22661 2.627042,1.72455 4.855326,3.32877 l 4.051422,2.91676 1.901703,-0.8712 c 1.045935,-0.47916 3.079146,-1.32898 4.518247,-1.88848 1.4391,-0.55951 2.675472,-1.07621 2.747491,-1.14823 0.07202,-0.072 0.529826,-2.46492 1.017344,-5.31755 0.487521,-2.8526397 1.11297,-5.6988097 1.389886,-6.3248297 0.731385,-1.65341 2.247788,-3.20118 3.960214,-4.04212 l 1.497684,-0.73548 h 8.069795 8.06979 l 1.49768,0.73548 c 1.71119,0.84033 3.22875,2.38852 3.95862,4.03851 0.27604,0.62403 0.86417,3.31751 1.30696,5.9855097 0.44278,2.668 0.89094,5.01339 0.9959,5.21198 0.10495,0.19858 1.25958,0.74352 2.56583,1.21097 1.30625,0.46745 3.41259,1.33707 4.68075,1.93249 l 2.30574,1.08258 3.91197,-2.80097 c 5.460646,-3.90983 6.004226,-4.16739 8.795196,-4.16739 3.41708,0 3.94032,0.33792 10.22515,6.60363 4.8293,4.81462 5.37321,5.44872 5.91013,6.89012 0.72641,1.95012 0.68091,4.96696 -0.0991,6.56769 -0.27105,0.55629 -1.78483,2.81003 -3.36395,5.00831 -1.57913,2.19828 -2.87114,4.15712 -2.87114,4.35298 0,0.19586 0.40657,1.16344 0.90348,2.15018 0.49692,0.98674 1.28963,2.89989 1.7616,4.25145 0.60686,1.73788 1.02017,2.52678 1.41162,2.69445 0.30443,0.13039 2.68578,0.59079 5.29188,1.02312 5.34478,0.88664 6.92137,1.48595 8.49694,3.22992 0.53874,0.59631 1.23399,1.63456 1.54502,2.30722 0.53852,1.16466 0.5655,1.60805 0.5655,9.2928 0,7.68476 -0.027,8.12815 -0.5655,9.29281 -0.31103,0.67265 -1.00628,1.7109 -1.54502,2.30722 -1.58736,1.75702 -3.08136,2.31 -8.94442,3.31065 -2.87876,0.49131 -5.27038,0.93905 -5.31471,0.99496 -0.0443,0.0559 -0.50089,1.23275 -1.01456,2.6152 -0.51367,1.38244 -1.35575,3.41927 -1.87128,4.52627 l -0.93733,2.01273 3.15211,4.43234 c 3.54359,4.982799 4.09795,6.267559 3.87936,8.990739 -0.22387,2.78894 -1.02688,3.95251 -6.51557,9.4412 -6.01114,6.01114 -6.69558,6.44263 -10.22099,6.44342 -2.8837,5.3e-4 -2.94531,-0.0285 -8.565176,-4.04957 l -4.06725,-2.91018 -2.41504,1.11754 c -1.32827,0.61464 -3.40245,1.46698 -4.60929,1.89407 -1.62009,0.57334 -2.22461,0.91512 -2.31025,1.30617 -0.0638,0.2913 -0.47723,2.67276 -0.91874,5.29214 -0.90404,5.36347 -1.49328,6.91521 -3.21735,8.47281 -2.25904,2.0409 -2.5834,2.10362 -11.20316,2.16642 -5.7961,0.0422 -7.943159,-0.0304 -8.777764,-0.29702 z m 14.985464,-7.89482 c 0.13377,-0.32742 0.6773,-3.21076 1.20785,-6.40743 0.53055,-3.19666 1.12074,-6.11397 1.31152,-6.48291 0.6105,-1.18057 1.30546,-1.5784 4.65811,-2.66651 1.80597,-0.58612 4.95886,-1.89463 7.00642,-2.9078 2.08109,-1.02974 4.06916,-1.84211 4.50812,-1.84211 1.14257,0 2.09345,0.5591 7.319136,4.30356 2.5862,1.85315 4.90927,3.36935 5.16238,3.36935 0.59146,0 9.05314,-8.45943 9.05314,-9.05073 0,-0.24527 -1.60824,-2.70911 -3.57387,-5.47521 -3.66346,-5.155349 -4.09904,-5.909319 -4.09904,-7.095229 0,-0.37656 0.82669,-2.3631 1.8371,-4.41455 1.01041,-2.05145 2.32513,-5.2305 2.92161,-7.06456 1.59229,-4.89602 1.23782,-4.67706 9.79337,-6.04966 2.83765,-0.45526 5.42726,-0.9385 5.75469,-1.07386 0.59441,-0.24573 0.59531,-0.2559 0.59531,-6.71304 v -6.46694 l -0.72761,-0.14577 c -0.40018,-0.0802 -3.28744,-0.57978 -6.41614,-1.11027 -3.1287,-0.53048 -5.98648,-1.117 -6.35063,-1.30338 -1.16937,-0.59852 -1.53861,-1.26287 -2.7682,-4.98076 -0.66351,-2.00622 -1.97883,-5.17451 -2.92294,-7.04064 -0.94411,-1.86613 -1.71656,-3.69635 -1.71656,-4.06716 0,-1.18226 0.45726,-1.96924 4.10252,-7.06072 1.96371,-2.7428 3.57039,-5.2052 3.57039,-5.47199 0,-0.59969 -8.43558,-9.07802 -9.03225,-9.07802 -0.2351,0 -2.55798,1.53064 -5.16195,3.40142 -5.339336,3.83596 -6.077816,4.27149 -7.242686,4.27149 -0.48444,0 -2.37612,-0.75822 -4.5772,-1.83463 -2.06335,-1.00905 -4.94216,-2.21039 -6.39737,-2.66965 -3.75938,-1.18646 -4.58998,-1.57525 -5.20221,-2.43504 -0.39815,-0.55916 -0.81322,-2.34361 -1.57372,-6.7658 -0.56812,-3.30348 -1.09392,-6.2742297 -1.16844,-6.6016497 l -0.1355,-0.59531 h -6.46164 c -3.760551,0 -6.526071,0.10426 -6.615786,0.24943 -0.08479,0.13718 -0.636095,3.0836797 -1.225137,6.5477797 -0.726911,4.2749 -1.236255,6.56577 -1.585423,7.13074 -0.60561,0.97989 -1.252797,1.30691 -5.136308,2.59534 -1.600729,0.53107 -4.398698,1.71402 -6.217708,2.62876 -1.819011,0.91475 -3.629919,1.74332 -4.024244,1.84127 -1.22542,0.30438 -2.551382,-0.40214 -7.77813,-4.14445 -2.780525,-1.99084 -5.153845,-3.6197 -5.274046,-3.6197 -0.37321,0 -9.117329,8.82234 -9.117329,9.19889 0,0.19562 1.628302,2.64098 3.618449,5.43412 1.990146,2.79315 3.777149,5.52972 3.971118,6.08128 0.455623,1.2956 0.30988,1.81826 -1.527953,5.47946 -0.840052,1.67348 -2.07784,4.70958 -2.75064,6.74687 -1.2774,3.86807 -1.952681,4.95974 -3.273821,5.29254 -0.384236,0.0968 -3.346134,0.63418 -6.581995,1.1942 -3.23586,0.56002 -6.0040637,1.09279 -6.1515617,1.18395 -0.169111,0.10452 -0.268179,2.50783 -0.268179,6.50581 0,6.32466 0.0015,6.34066 0.595313,6.58919 0.327421,0.13703 3.3819147,0.72041 6.7877637,1.2964 7.62875,1.29016 7.342463,1.09575 9.006517,6.11603 0.602941,1.81901 1.93639,4.99515 2.963221,7.05808 1.68761,3.39045 1.849617,3.85344 1.686404,4.81949 -0.132871,0.78647 -1.083189,2.33133 -3.598306,5.849489 -1.879762,2.62942 -3.613273,5.07917 -3.852247,5.44389 l -0.434499,0.66313 4.459104,4.48713 c 2.452506,2.46792 4.654265,4.48712 4.892798,4.48712 0.238529,0 2.207635,-1.27042 4.37579,-2.82315 6.056389,-4.33732 6.912755,-4.84976 8.104613,-4.84976 0.738547,0 2.042668,0.49073 4.523041,1.702 1.916904,0.9361 4.962882,2.18508 6.768846,2.77551 3.373577,1.10294 4.047037,1.49264 4.673695,2.70446 0.199353,0.38551 0.78844,3.30282 1.309079,6.48291 0.520639,3.1801 1.057163,6.04988 1.192276,6.3773 0.245136,0.59405 0.259233,0.59532 6.607005,0.59532 6.34849,0 6.36183,-0.001 6.60457,-0.59532 z M 62.831758,97.048231 c -12.313996,-2.34268 -21.862829,-12.2225 -23.648179,-24.46787 -0.397684,-2.72763 -0.186687,-8.45326 0.400778,-10.87564 2.71473,-11.19402 11.443099,-19.65772 22.661138,-21.97398 2.36125,-0.48755 3.324719,-0.54784 6.848839,-0.42858 2.95779,0.10008 4.66352,0.29108 6.11876,0.68514 10.53533,2.85281 18.3021,10.61958 21.15491,21.15492 0.39406,1.45523 0.58506,3.16097 0.68515,6.11875 0.11925,3.52412 0.059,4.48759 -0.42858,6.84884 -2.31651,11.21923 -10.73624,19.90442 -21.97399,22.66681 -2.38266,0.58569 -9.328842,0.74532 -11.818826,0.27161 z m 10.363616,-7.84488 c 4.29894,-1.02288 8.77201,-3.82115 11.50687,-7.1985 8.06559,-9.96038 5.92816,-24.44258 -4.66631,-31.61673 -7.60497,-5.14978 -17.70655,-4.8087 -25.139244,0.84882 -3.650355,2.77853 -6.594207,7.28947 -7.780974,11.92299 -0.747393,2.91806 -0.746927,7.40409 0.0011,10.31875 2.975406,11.59399 14.424654,18.49757 26.078588,15.72467 z"
       id="path29" />
  </g>
</svg>
