<?xml version="1.0" encoding="UTF-8"?>
<svg width="36px" height="36px" viewBox="0 0 36 36" version="1.1" xmlns="http://www.w3.org/2000/svg" xmlns:xlink="http://www.w3.org/1999/xlink">
    <!-- Generator: Sketch 46.2 (44496) - http://www.bohemiancoding.com/sketch -->
    <title>Album</title>
    <desc>Created with Sketch.</desc>
    <defs></defs>
    <g id="Page-1" stroke="none" stroke-width="1" fill="none" fill-rule="evenodd">
        <g id="Icons-Pattern-One" transform="translate(-558.000000, -465.000000)" fill-rule="nonzero" fill="#FF39AA">
            <g id="Album" transform="translate(558.000000, 465.000000)">
                <path d="M4,32 L32,32 L32,4 L4,4 L4,32 Z M0,0 L36,0 L36,36 L0,36 L0,0 Z M18,30 C24.627417,30 30,24.627417 30,18 C30,11.372583 24.627417,6 18,6 C11.372583,6 6,11.372583 6,18 C6,24.627417 11.372583,30 18,30 Z M18,26 C13.581722,26 10,22.418278 10,18 C10,13.581722 13.581722,10 18,10 C22.418278,10 26,13.581722 26,18 C26,22.418278 22.418278,26 18,26 Z M18,21 C19.6568542,21 21,19.6568542 21,18 C21,16.3431458 19.6568542,15 18,15 C16.3431458,15 15,16.3431458 15,18 C15,19.6568542 16.3431458,21 18,21 Z"></path>
            </g>
        </g>
    </g>
</svg>