<?xml version="1.0" encoding="UTF-8"?>
<svg width="31px" height="36px" viewBox="0 0 31 36" version="1.1" xmlns="http://www.w3.org/2000/svg" xmlns:xlink="http://www.w3.org/1999/xlink">
    <!-- Generator: Sketch 46.2 (44496) - http://www.bohemiancoding.com/sketch -->
    <title>Notification</title>
    <desc>Created with Sketch.</desc>
    <defs></defs>
    <g id="Page-1" stroke="none" stroke-width="1" fill="none" fill-rule="evenodd">
        <g id="Icons-Pattern-One" transform="translate(-108.000000, -93.000000)" fill="#FF39AA">
            <g id="Notification" transform="translate(105.000000, 93.000000)">
                <path d="M20.3132414,2.25003705 C25.4333881,3.19763546 29.2871372,7.32485882 29.2871372,12.2727273 L29.2871372,22.5 L6.85239766,22.5 L6.85239766,12.2727273 C6.85239766,7.32485882 10.7061468,3.19763546 15.8262935,2.25003705 L15.8262935,2.04545455 C15.8262935,0.915781194 16.830731,0 18.0697674,0 C19.3088039,0 20.3132414,0.915781194 20.3132414,2.04545455 L20.3132414,2.25003705 Z M18.0697674,36 C15.5916945,36 13.5828195,33.9852814 13.5828195,31.5 L22.5567154,31.5 C22.5567154,33.9852814 20.5478403,36 18.0697674,36 Z M3.13141966,28.4818019 L6.19529935,25.4090097 C6.61603233,24.9870529 6.85239766,24.4147566 6.85239766,23.8180195 L6.85239766,22.5 L29.2871372,22.5 L29.2871372,23.8180195 C29.2871372,24.4147566 29.5235026,24.9870529 29.9442355,25.4090097 L33.0081152,28.4818019 C33.1833414,28.6575379 33.1833414,28.9424621 33.0081152,29.1181981 C32.9239686,29.2025894 32.8098413,29.25 32.6908401,29.25 L3.44869479,29.25 C3.2008875,29.25 3,29.0485281 3,28.8 C3,28.6806526 3.04727307,28.5661933 3.13141966,28.4818019 Z"></path>
            </g>
        </g>
    </g>
</svg>