<?xml version="1.0" encoding="UTF-8"?>
<svg width="36px" height="24px" viewBox="0 0 36 24" version="1.1" xmlns="http://www.w3.org/2000/svg" xmlns:xlink="http://www.w3.org/1999/xlink">
    <!-- Generator: Sketch 46.2 (44496) - http://www.bohemiancoding.com/sketch -->
    <title>Podcast</title>
    <desc>Created with Sketch.</desc>
    <defs></defs>
    <g id="Page-1" stroke="none" stroke-width="1" fill="none" fill-rule="evenodd">
        <g id="Icons-Pattern-One" transform="translate(-105.000000, -471.000000)" fill-rule="nonzero" fill="#FF39AA">
            <g id="Podcast" transform="translate(105.000000, 465.000000)">
                <path d="M4.63755316,6.57969414 C5.41353205,5.80371525 6.67515482,5.80722765 7.45546649,6.58753931 C8.23577815,7.36785098 8.23929055,8.62947375 7.46331166,9.40545264 C2.80743829,14.061326 2.8285127,21.6310626 7.51038267,26.3129326 C8.29069433,27.0932443 8.29420673,28.354867 7.51822784,29.1308459 C6.74224894,29.9068248 5.48062617,29.9033124 4.70031451,29.1230008 C-1.54217879,22.8805075 -1.570278,12.7875253 4.63755316,6.57969414 Z M10.098998,10.5641524 C10.8749769,9.78817349 12.1365997,9.79168589 12.9169113,10.5719975 C13.697223,11.3523092 13.7007354,12.613932 12.9247565,13.3899109 C10.5968198,15.7178476 10.607357,19.5027159 12.948292,21.8436509 C13.7286037,22.6239625 13.7321161,23.8855853 12.9561372,24.6615642 C12.1801583,25.4375431 10.9185355,25.4340307 10.1382239,24.653719 C6.23666555,20.7521607 6.21910354,14.4440469 10.098998,10.5641524 Z M31.3624468,29.1308459 C30.5864679,29.9068248 29.3248452,29.9033124 28.5445335,29.1230008 C27.7642219,28.3426891 27.7607094,27.0810663 28.5366883,26.3050874 C33.1925617,21.6492141 33.1714873,14.0794774 28.4896173,9.39760747 C27.7093057,8.61729581 27.7057933,7.35567304 28.4817722,6.57969414 C29.2577511,5.80371525 30.5193738,5.80722765 31.2996855,6.58753931 C37.5421788,12.8300326 37.570278,22.9230148 31.3624468,29.1308459 Z M25.8717558,24.6615642 C25.0957769,25.4375431 23.8341541,25.4340307 23.0538425,24.653719 C22.2735308,23.8734074 22.2700184,22.6117846 23.0459973,21.8358057 C25.373934,19.507869 25.3633968,15.7230007 23.0224618,13.3820657 C22.2421501,12.601754 22.2386377,11.3401313 23.0146166,10.5641524 C23.7905955,9.78817349 25.0522183,9.79168589 25.83253,10.5719975 C29.7340883,14.4735559 29.7516503,20.7816697 25.8717558,24.6615642 Z M18,21.9519063 C15.8052002,21.9519063 14.0259635,20.1627349 14.0259635,17.9556803 C14.0259635,15.7486256 15.8052002,13.9594543 18,13.9594543 C20.1947998,13.9594543 21.9740365,15.7486256 21.9740365,17.9556803 C21.9740365,20.1627349 20.1947998,21.9519063 18,21.9519063 Z"></path>
            </g>
        </g>
    </g>
</svg>