<?xml version="1.0" encoding="UTF-8"?>
<svg width="37px" height="31px" viewBox="0 0 37 31" version="1.1" xmlns="http://www.w3.org/2000/svg" xmlns:xlink="http://www.w3.org/1999/xlink">
    <!-- Generator: Sketch 46.2 (44496) - http://www.bohemiancoding.com/sketch -->
    <title>Radio</title>
    <desc>Created with Sketch.</desc>
    <defs></defs>
    <g id="Page-1" stroke="none" stroke-width="1" fill="none" fill-rule="evenodd">
        <g id="Icons-Pattern-One" transform="translate(-861.000000, -282.000000)" fill-rule="nonzero" fill="#FF39AA">
            <g id="Radio" transform="translate(861.000000, 279.000000)">
                <path d="M4.64193284,3.5802416 C5.41864456,2.80352988 6.6814588,2.8070456 7.46250738,3.58809418 C8.24355597,4.36914277 8.24707169,5.631957 7.47035996,6.40866873 C2.81008961,11.0689391 2.83118393,18.6458245 7.51747543,23.332116 C8.29852401,24.1131646 8.30203973,25.3759788 7.525328,26.1526906 C6.74861628,26.9294023 5.48580204,26.9258866 4.70475346,26.144838 C-1.54363521,19.8964493 -1.57176096,9.7939354 4.64193284,3.5802416 Z M10.1085354,7.56846274 C10.8852472,6.79175101 12.1480614,6.79526673 12.92911,7.57631532 C13.7101586,8.3573639 13.7136743,9.62017814 12.9369626,10.3968899 C10.6068274,12.727025 10.6173746,16.5154678 12.9605203,18.8586135 C13.7415689,19.6396621 13.7450846,20.9024763 12.9683729,21.6791881 C12.1916612,22.4558998 10.9288469,22.4523841 10.1477983,21.6713355 C6.24255541,17.7660926 6.22497682,11.4520214 10.1085354,7.56846274 Z M31.3920653,26.1526906 C30.6153536,26.9294023 29.3525394,26.9258866 28.5714908,26.144838 C27.7904422,25.3637894 27.7869265,24.1009752 28.5636382,23.3242634 C33.2239086,18.6639931 33.2028143,11.0871077 28.5165228,6.40081615 C27.7354742,5.61976757 27.7319584,4.35695333 28.5086702,3.5802416 C29.2853819,2.80352988 30.5481961,2.8070456 31.3292447,3.58809418 C37.5776334,9.83648285 37.6057591,19.9389968 31.3920653,26.1526906 Z M25.8961889,21.6791881 C25.1194772,22.4558998 23.856663,22.4523841 23.0756144,21.6713355 C22.2945658,20.8902869 22.2910501,19.6274727 23.0677618,18.8507609 C25.397897,16.5206258 25.3873498,12.732183 23.0442041,10.3890373 C22.2631555,9.6079887 22.2596398,8.34517446 23.0363515,7.56846274 C23.8130632,6.79175101 25.0758775,6.79526673 25.856926,7.57631532 C29.762169,11.4815582 29.7797476,17.7956294 25.8961889,21.6791881 Z M18.0169991,18.9669711 C15.8201266,18.9669711 14.0392095,17.1761101 14.0392095,14.9669711 C14.0392095,12.7578321 15.8201266,10.9669711 18.0169991,10.9669711 C20.2138716,10.9669711 21.9947886,12.7578321 21.9947886,14.9669711 C21.9947886,17.1761101 20.2138716,18.9669711 18.0169991,18.9669711 Z M16.4280252,20.9669711 L19.6949769,20.9669711 C19.9424893,20.9669711 20.1527528,21.1480611 20.1894506,21.3928379 L21.988533,33.3928379 C22.0294757,33.6659282 21.8412829,33.9205022 21.5681926,33.9614449 C21.5436529,33.9651239 21.5188733,33.9669711 21.4940593,33.9669711 L14.5399405,33.9669711 C14.2637981,33.9669711 14.0399405,33.7431135 14.0399405,33.4669711 C14.0399405,33.4409478 14.0419721,33.4149641 14.0460169,33.389257 L15.9341016,21.389257 C15.9723586,21.1461091 16.181886,20.9669711 16.4280252,20.9669711 Z"></path>
            </g>
        </g>
    </g>
</svg>