<?xml version="1.0" encoding="UTF-8"?>
<svg width="36px" height="36px" viewBox="0 0 36 36" version="1.1" xmlns="http://www.w3.org/2000/svg" xmlns:xlink="http://www.w3.org/1999/xlink">
    <!-- Generator: Sketch 46.2 (44496) - http://www.bohemiancoding.com/sketch -->
    <title>Create Playlist</title>
    <desc>Created with Sketch.</desc>
    <defs></defs>
    <g id="Page-1" stroke="none" stroke-width="1" fill="none" fill-rule="evenodd">
        <g id="Icons-Pattern-One" transform="translate(-407.000000, -465.000000)" fill-rule="nonzero" fill="#FF39AA">
            <g id="Create-Playlist" transform="translate(407.000000, 465.000000)">
                <path d="M18,32 C25.7319865,32 32,25.7319865 32,18 C32,10.2680135 25.7319865,4 18,4 C10.2680135,4 4,10.2680135 4,18 C4,25.7319865 10.2680135,32 18,32 Z M20,16 L25,16 C26.1045695,16 27,16.8954305 27,18 C27,19.1045695 26.1045695,20 25,20 L20,20 L20,25 C20,26.1045695 19.1045695,27 18,27 C16.8954305,27 16,26.1045695 16,25 L16,20 L11,20 C9.8954305,20 9,19.1045695 9,18 C9,16.8954305 9.8954305,16 11,16 L16,16 L16,11 C16,9.8954305 16.8954305,9 18,9 C19.1045695,9 20,9.8954305 20,11 L20,16 Z M18,36 C8.0588745,36 0,27.9411255 0,18 C0,8.0588745 8.0588745,0 18,0 C27.9411255,0 36,8.0588745 36,18 C36,27.9411255 27.9411255,36 18,36 Z"></path>
            </g>
        </g>
    </g>
</svg>