/* XPM */
static char * arrow_up_xpm[] = {
"13 16 25 1",
" 	c None",
".	c #00009E",
"+	c #0000A8",
"@	c #5737F9",
"#	c #0000A4",
"$	c #0000A6",
"%	c #866AFE",
"&	c #AA94FE",
"*	c #8062FE",
"=	c #8468FE",
"-	c #A992FE",
";	c #AC96FE",
">	c #8164FE",
",	c #7D5FFD",
"'	c #A48CFE",
")	c #A086FE",
"!	c #00009C",
"~	c #9478FE",
"{	c #896AFE",
"]	c #835DFD",
"^	c #7950FC",
"/	c #6D41FB",
"(	c #6638FA",
"_	c #673AFA",
":	c #A790FE",
"      .      ",
"     +@#     ",
"    $%&*#    ",
"   $=-;->#   ",
"  $=-;;;->#  ",
" #,&&')'&&,# ",
"!!!!+&~&+!!!!",
"    !&{&!    ",
"    !&]&!    ",
"    !&^&!    ",
"    !&/&!    ",
"    !&(&!    ",
"    !&(&!    ",
"    !&_&!    ",
"    !:&:!    ",
"    !!!!!    "};
